<svg xmlns="http://www.w3.org/2000/svg" version="1.2" viewBox="0 0 300 300" width="250px" xmlns:xlink="http://www.w3.org/1999/xlink"><title id="isuf">SUF Token of Honor</title><defs><style>.suf{text-anchor:middle;font-size:16px;fill:none;stroke-width:1px;stroke-dasharray:90 310;text-shadow:-5px -5px 9px #fff;animation:stroke 6s infinite linear;}.suf1{stroke:red;animation-delay:-1.5s;}.suf2{stroke:#643c00;animation-delay:-3s;}.suf3{stroke:blue;animation-delay:-4.5s;}.suf4{stroke:#006400;animation-delay:-6s;}.tsuf{font-size:14px;text-anchor:middle;stroke:#643C00;text-shadow:-9px -5px 9px #fff;}@keyframes stroke{100% {stroke-dashoffset:-400;}}</style><linearGradient id="50a" x1="51.69" x2="256.13" y1="38.07" y2="270.93" gradientUnits="userSpaceOnUse"><stop offset="0" stop-color="#dbac0c"/><stop offset=".04" stop-color="#8d713a"/><stop offset=".15" stop-color="#513419"/><stop offset=".27" stop-color="#f9d452"/><stop offset=".37" stop-color="#886d38"/><stop offset=".46" stop-color="#402510"/><stop offset=".61" stop-color="#b89852"/><stop offset=".68" stop-color="#fcd34f"/><stop offset=".81" stop-color="#9f8045"/><stop offset=".86" stop-color="#573b1c"/><stop offset=".98" stop-color="#ffda4d"/></linearGradient><linearGradient id="50b" x1="9.25" x2="302.61" y1="207.24" y2="88.04" gradientUnits="userSpaceOnUse"><stop offset=".01" stop-color="#cfd0d0"/><stop offset=".03" stop-color="#c9caca"/><stop offset=".1" stop-color="#b5b5b6"/><stop offset=".15" stop-color="#aeaeaf"/><stop offset=".31" stop-color="#fff"/><stop offset=".36" stop-color="#e2e3e3"/><stop offset=".44" stop-color="#bababa"/><stop offset=".51" stop-color="#9c9d9d"/><stop offset=".57" stop-color="#8a8b8b"/><stop offset=".62" stop-color="#848585"/><stop offset=".67" stop-color="#9c9d9d"/><stop offset=".77" stop-color="#dadada"/><stop offset=".83" stop-color="#fff"/><stop offset=".85" stop-color="#f4f4f4"/><stop offset=".89" stop-color="#d5d5d6"/><stop offset=".94" stop-color="#a4a5a5"/><stop offset=".99" stop-color="#78797a"/></linearGradient><path id="50c" d="M24.95 150.39C27.93 50.3 129.7-4.43 212.68 39.54c38.3 20.3 61.94 64.87 60.44 108.83"/><path id="50d" d="M16 152.24C11.7 254.46 125.63 321.5 218.5 270.9 265.16 245.47 284 197.87 284 150"/></defs><path fill="url(#50a)" d="M183.16 3.75a150 150 0 0 0-66.32 292.6c77.68 17.65 160.53-29.82 179.42-113.14A150 150 0 0 0 183.16 3.75M150 265a115 115 0 1 1 115-115 115 115 0 0 1-115 115"/><path fill="url(#50b)" d="M150 4.15C37.69 4.11-32.55 125.67 23.57 222.95c56.12 97.3 196.52 97.34 252.7.1a146 146 0 0 0 19.58-73C295.87 69.48 230.57 4.16 150 4.15"/><path fill="#643c00" d="M144.26 33.21q-11.14.6-21.9 3.32a110.5 110.5 0 0 0-60.88 38.2 119.1 119.1 0 0 0-22.68 114c2.15 6.35 6.75 16.51 10.17 22.18a128 128 0 0 0 27.07 31.26 108 108 0 0 0 25.7 15.44c7.92 3.51 13.1 5.37 21.02 7.23a100 100 0 0 0 25.9 3.12c35.86.92 70.11-14.9 92.66-42.79a100 100 0 0 0 16.22-25.4A118 118 0 0 0 268 152.98q0-6.15-.68-12.31a123 123 0 0 0-56.1-90.85 115.4 115.4 0 0 0-66.96-16.61m16.91 3.9a109.5 109.5 0 0 1 84.94 52.76A126 126 0 0 1 264.29 144q.58 7.33.1 14.66a106 106 0 0 1-2.94 19.24 150 150 0 0 1-5.47 17l-.59 1.37-1.27-.78q-1.18-.8-2.44-1.27a21 21 0 0 0-6.45-.98h-.98l-.59-1.47a10 10 0 0 0-2.73-4.4 13 13 0 0 0-5.28-2.63l-1.17-.1 1.07-2.15q2.6-4.45 4.1-9.38c.3-1.27.2-1.95-.1-3.9a171 171 0 0 0-10.06-28.33q-2.1-5.1-3.81-10.36a786 786 0 0 0-13.49-38c-7.82-19.44-13.1-28.53-20.82-36.54a54 54 0 0 0-10.16-8.3 56.7 56.7 0 0 0-34.6-9.18 63.5 63.5 0 0 0-27.37 9.37q-5.1 3.63-9.58 8.02-4.06 4.53-7.62 9.47-4.35 6.6-7.82 13.68c-3.91 8.1-10.46 25.1-14.47 37.22-2.24 6.93-2.15 6.84-3.32 9.77l-2.05 6.05c-1.86 5.08-7.82 20.13-8.3 21.5-2.94 8-4.9 14.75-5.1 17.29s.2 4 2.94 9.38l2.35 4.59-1.27.2c-3.52.38-6.85 3.31-8.31 7.12l-.5 1.18h-1.95c-2.64-.3-4.4.1-7.13 1.46-1.86.98-2.25 1.08-2.35.69l-2.05-5.87a115 115 0 0 1-6.35-44.74l.39-3.42c.79-7.81 2.33-15.53 4.6-23.05a128 128 0 0 1 15.63-32.24A137 137 0 0 1 77.9 62.7a107 107 0 0 1 28.05-17.39 128 128 0 0 1 30.3-8c5.57-.6 15.64-.7 24.82-.2m-6.35 4.4a65 65 0 0 1 23.56 8 88 88 0 0 1 10.55 8.5 79 79 0 0 1 13.3 19.74 376 376 0 0 1 20.23 53.14q1.8 6.24 4.5 12.11a65 65 0 0 1 3.7 9.38q3.1 8.2 5.48 16.61c.78 2.93.68 3.62-1.27 7.82-2.93 6.15-8.4 15.14-10.07 16.5-.39.3.59-1.95 2.45-5.56a53 53 0 0 0 3.61-10.94c.76-7.83.17-15.73-1.76-23.35l-1.27-3.32.5 4.69q.48 5.17.68 10.16a43 43 0 0 1-1.57 15.04c-.59 1.66-2.54 5.86-2.93 6.25l.98-3.12c.58-1.37-1.18-2.35-1.37-5.77a116 116 0 0 0-8.5-41.03c-2.94-8.2-3.92-10.55-7.43-19.15l-3.23-7.81a89 89 0 0 0-9.38-16.9 48 48 0 0 0-10.17-11.53 79 79 0 0 0-19.84-12.4 20 20 0 0 0-5.96-1.77c-2.93-.68-3.81-.68-3.91-.19q-.3.39 1.66.78a76 76 0 0 1 14.27 5.96 66.5 66.5 0 0 1 24.44 24.33 164 164 0 0 1 12.5 23.93c4.6 9.96 7.92 19.34 10.86 30.48 2.63 9.77 3.03 12.9 3.22 22.27l.1 7.33-.78 4.6c-.88 4.88-1.37 6.54-3.03 9.76-2.64 5.28-6.94 10.75-13.88 17.59A167 167 0 0 1 168.3 241a137 137 0 0 1-32.84 12.3q-4.5 1.05-9.1 1.28-2.14 0-2.63.3l-6.84.09c-7.04 0-13-.49-15.15-1.17a102 102 0 0 1-34.9-25.3 275 275 0 0 1-13.49-18.76c0-.4 5.87 4.1 6.85 4.69l5.18 4.3a219 219 0 0 0 17.78 14.16c1.96 1.47 11.34 6.94 15.25 8.01a74 74 0 0 0 27.37 2.35 97 97 0 0 0 22-5.96c4.68-1.86 17.58-8.2 22.18-11.04a383 383 0 0 0 23.94-16.02l6.65-4.99c4.1-3.22 8.8-8.1 11.34-11.82 3.9-5.96 5.28-9.96 5.47-16.5.3-8.8-1.27-16.81-6.06-28.92q-3.9-9.78-8.7-19.05c-9.67-19.54-16.22-29.8-23.94-37.61-10.17-10.16-21.5-15.15-31.47-13.97-6.55.78-12.12 3.12-18.19 7.62a78 78 0 0 0-9.96 9.77 190 190 0 0 0-23.46 38.3 138 138 0 0 0-7.33 17.09 75 75 0 0 0-5.28 27.35c.2 4 .58 5.47 2.34 9.57a28 28 0 0 0 4.5 7.82c4 5.18 7.53 8.3 17.6 15.92 11.91 8.56 26.1 17.58 38.4 25.56l-15.17 4.55s-22.38-13.3-28.63-18.37c-9.45-7.75-14.84-17.63-19.53-25.9-2.73-4.89-3.42-7.23-3.9-14.46a86 86 0 0 1-.5-13.38q-.3-.2 0-1.96l.3-2.25c0-.87.29-3.22.2-3.7q0-1.37-.3-.5l-.59 3.81-.68 4.5-.2 7.62c0 4.5-.97 9.28-.97 9.28s-3.52-9.48-3.62-11.43l-.4-4.4c-.38-6.84.15-13.7 1.57-20.41a64 64 0 0 0-2.74 8.3c-.78 3.13-.97 3.9-.97 8.1q-.3 8.8 1.17 14.56c.78 2.93 2.93 8.2 4.5 11.14q1.76 2.93 0 .98a68 68 0 0 1-8.5-13.68c-2.55-5.08-2.84-6.06-2.35-8.6.97-5.27 5.86-19.73 9.77-29.01.98-2.15 3.13-8.2 4.89-13.38q4.92-14.74 10.36-29.31c3.9-10.46 9.67-22.86 13.3-28.72A60.6 60.6 0 0 1 129.7 46c7.9-3.6 16.57-5.1 25.22-4.4m-1.18 49.34c8.78.4 17.04 4.27 22.97 10.74 3.52 3.81 6.16 7.52 5.77 7.92q-.98 0-2.05-.4-3.82-1.07-1.57.5a13 13 0 0 1 3.91 4.58c.78 1.47.88 1.86 1.17 4.2l.1 1.27 1.86.69a9.8 9.8 0 0 1 6.06 7.33c.68 3.12.39 11.72-.78 18.16-2.64 14.66-3.33 16.8-7.43 22.96a52.8 52.8 0 0 1-26.68 20.03 35 35 0 0 1-14.37-.4 55.7 55.7 0 0 1-25.02-18.65 34 34 0 0 1-5.48-10.55q-2.64-12-3.71-24.23c-.2-5.66.78-10.06 2.93-12.4a13 13 0 0 1 5.08-2.94l.88-.1-.39-.97q-.68-1.47 1.08-4.88a12.5 12.5 0 0 1 3.61-4.4l.98-.78h-.78l-2.15.58q-1.47.6-1.56.4c0-.4 3.61-5.87 4.88-7.33a35 35 0 0 1 6.85-5.86 39 39 0 0 1 7.81-3.23l4.99-1.27q3.6-1.02 7.33-1.27zm-54.43 45.62s6.67 6.15 6.74 6.54l.48 2.74c.3 1.17.5 2.54.69 2.93l.2.97-.98-.58c-1.36-.83-6.03-9.46-7.13-12.6m100.47 3.9c-2.44 5.57-3.62 7.53-5.28 8.6q-1.17.78-.78 0c.2-.78.98-5.27.98-6.15q-.1-.97.49-.78c1.36 0 3.61-1.66 4.88-3.52q1.57-2.55-.3 1.85m11.93 29.02c.1.2 0 1.46.79 1.46.58 0 2.24 8.4 1.66 11.14-.98 3.9-4.9 10.94-8.4 14.66-1.77 1.75-1.87 1.85-1.87 1.07q.2-3.9 1.96-7.23 2.93-6.15 4.4-12.9c.3-1.56 1.27-8.5 1.46-8.2m-125.6 7.23c.2-1.08 1.96-4.3 1.96-4.4 0-.3.98-.39 1.47 0 0 0 .39 1.08.58 2.35.5 3.42 1.47 7.81 2.35 9.77 3.81 9.67 4.98 13.28 4.5 13.77-.3.3-3.33-3.03-5.38-5.86-3.9-5.47-6.06-11.43-5.47-15.63m29.9-2.35c3.13 5.48 5.48 10.14 10.37 14.83 10.86 10.77 14.36 10.95 21.7 12.12 4.56.39 11.73-2.59 15.5-4.93 8.38-6.4 12.45-7.37 17.82-16.45l3.13-5.18.69-1.17.1 5.77c.19 6.44-.1 14.26-.7 18.07-.38 2.54-1.95 8.2-3.6 13.48l-1.28 4.1c-.2.8-.6 1.55-1.17 2.15-5.28 3.78-10.2 7.42-15.86 10.55-.46.12-7.7-3.03-8.38-2.44-1.04.72 1.1-3.58 3.32-4.98 3.91-2.93-2.54-1.47-5.47.49-1.56.97-1.86 1.17-2.35.97-.68-.39-12.7-5.37-5.08 0 1.1.85-.1 2.54-.1 2.54-1.56 0-8.52 4.42-8.52 4.42l-8.2-6.04-6.83-5.8-.2-1.37c0-.68-.78-3.12-1.56-5.27a87 87 0 0 1-3.62-12.7c-.39-1.96-.39-3.52-.3-9.38V177.3c0-2.15.1-3.9.2-3.8zm74.97 4.5c.52.78 4.5 4.88 5.57 5.96 1.96 2.05 3.72 4.49 4.2 5.56.5 1.08.5 1.47.2 3.03l-.2 4.6c0 2.44-.1 2.92-.58 3.41a170 170 0 0 1-15.93 12.31l-.98.88s.78-3.22 1.37-4.88a75 75 0 0 0 3.9-18.37c.79-5.96-.19-14.26-.19-14.65v-.98l.78.88zm-78.48-2.15c0 .2-.1 1.37-.4 2.64-.68 4.3-.87 6.25-.58 10.06.49 7.23 1.17 10.55 3.9 18.95q1.05 2.73 1.77 5.57.2.78-1.37-.49a90 90 0 0 1-6.35-4.88l-4.4-3.42-3.32-2.64-1.67-1.56v-3.13q-.01-2.47-.58-4.88l-.5-1.96 1.08-1.27a93 93 0 0 1 5.48-6.64c.39-.07 3.42-2.74 4-4.1.98-1.86 2.94-3.42 2.94-2.25m-44.67 11.72q.39.2.78 1.17c.98 2.15 5.47 8.01 10.75 13.39a318 318 0 0 0 15.35 15.33s36.34 22.99 35.97 22.9-19.55.4-22.48-.09c-6.45-.97-10.14-.64-16-3.97-9.38-5.32-17.66-13.96-25.84-20.98l-5.86-4.89-5.77-4.3-4.5-3.22a11 11 0 0 1-2.73-2.44l-.69-1.57c0-.39 1.47-1.76 2.94-2.44a8.8 8.8 0 0 1 5.86-.59c1.96.6 3.23 1.66 7.82 6.16 6.16 5.96 14.47 13 20.13 17.1q3.9 3.02.4-.4-7.35-7.02-14.27-14.45-4.5-5-9.48-9.58l-1.18-.97.4-.98a7.8 7.8 0 0 1 4.88-5.08c1.37-.4 3.03-.49 3.52-.2m168.9.3q1.95.97 3.51 3.7c1.37 2.45 1.37 2.74-1.17 4.3a85 85 0 0 0-15.64 16.32 53 53 0 0 1-5.67 5.96c.3.3 11.24-9.28 17.3-14.95 5.18-4.88 8.4-7.03 10.75-7.22 1.96-.2 4.3.48 6.06 1.56 1.96 1.27 2.06 1.46 1.37 2.93q-.58 1.28-1.86 1.95c-10.98 7-18.33 13.87-27.9 22.72l-6.55 5.78c-8.55 7.87-18.93 14.38-28.78 20.54a161 161 0 0 1-20.72 10.26 19 19 0 0 1-6.84 1.66c-1.67.1-6.85.2-11.44.1a116 116 0 0 1-33.43-4.88l-.97-.2.87-.2c.5-.2 2.84-.2 5.19-.2 5.86 0 10.84-.67 17.78-2.24q9.97-2.54 19.45-6.35c4.38-1.95 21.88-13.23 25.6-16.25 9.4-7.62 5.2-3.61 15.95-12.99 6.13-5.59 18.54-14.26 24.13-20.38q5.01-5.73 9.29-12.02c.78-.49 2.44-.49 3.71.1m12.03 20.7-1.47 2.35a146 146 0 0 1-17.6 20.9 88 88 0 0 1-14.65 12.12 161 161 0 0 1-19.16 10.45 116 116 0 0 1-15.25 5.38c-.2 0 .88-.59 2.25-1.37a83 83 0 0 0 7.92-4.69 305 305 0 0 0 13.48-10.06c4.8-3.91 28.45-24.14 28.45-24.14a114 114 0 0 1 16.52-12q.1.09-.5.97m-87.14 19.1c1.96 1.27-5.41 4.28-5.8 4.67-.2.2-8.72 2.93-8.72 2.93s-8.65-5.85-8.97-6.37c-2.24-.66 6.37-3.93 7.54-4.52"/>
<path fill="#FF8C00" d="M110.9 100.26a10 10 0 1 1-19.99 0 10 10 0 0 1 20 0m-5.7-1.43c.2-1.33-.82-2.04-2.2-2.52l.44-1.8-1.1-.28-.44 1.76-.87-.21.44-1.77-1.1-.27-.45 1.8-.7-.16-1.52-.39-.29 1.18s.82.18.8.2c.45.1.53.4.51.63l-.5 2.05.1.04-.11-.03-.72 2.88c-.05.13-.2.34-.5.26 0 .02-.8-.2-.8-.2l-.55 1.26 1.43.35.78.2-.45 1.83 1.1.27.45-1.8.87.22-.45 1.8 1.1.27.45-1.82c1.88.36 3.28.21 3.88-1.48.47-1.36-.03-2.15-1.01-2.66.72-.16 1.26-.63 1.4-1.6m-2.51 3.52c-.34 1.36-2.63.62-3.38.44l.6-2.42c.74.19 3.13.55 2.77 1.98m.34-3.54c-.31 1.24-2.22.61-2.84.46l.54-2.2c.62.16 2.61.45 2.3 1.74"/>
<text x="50%" y="217" class="suf suf1">CHEERS</text><text x="50%" y="217" class="suf suf2">CHEERS</text><text x="50%" y="217" class="suf suf3">CHEERS</text><text x="50%" y="217" class="suf suf4" onclick="javascript:alert('Salute to 50 Satoshis!')">CHEERS</text>

<a href="https://etherscan.io/address/0xf9b6ed3c56387085d6949d884f71d30d955402ef" target="_blank">
<text class="tsuf"><textPath href="#50c" startOffset="50%">0x-A Donor's Address (View 50Satoshis' List)</textPath></text></a>

<a href="https://etherscan.io/tx/0x5a75d1be49d500dc2f8be33ec17385ad7749c27eaefde294aafd76cb726df644" target="_blank">
<text class="tsuf"><textPath href="#50d" startOffset="50%">HONOR TOKEN (#50, 2024/11/21)</textPath></text></a>

<a href="https://etherscan.io/token/0xe40b05570d2760102c59bf4ffc9b47f921b67a1f?a=0x6b0b31fd78e63830d3485af5a716b9a9f15011dc" target="_blank"><text x="50%" y="240" class="tsuf">Satoshi UTO Fund</text></a>

<metadata>DD Zhou,Queena Sau Chun Tung</metadata></svg>